<svg width="128" height="128" viewBox="0 0 128 128" xmlns="http://www.w3.org/2000/svg">
  <defs>
    <linearGradient id="grad1" x1="0%" y1="0%" x2="100%" y2="100%">
      <stop offset="0%" style="stop-color:#4285f4;stop-opacity:1" />
      <stop offset="100%" style="stop-color:#1a73e8;stop-opacity:1" />
    </linearGradient>
  </defs>
  <rect width="128" height="128" rx="20" fill="url(#grad1)" />
  <path d="M64 20a20 20 0 0 0-20 20v24a4 4 0 0 0 4 4h24a4 4 0 0 0 4-4v-8a12 12 0 0 1 24 0v8a4 4 0 0 0 4 4h24a4 4 0 0 0 4-4v-24a20 20 0 0 0-40 0z" fill="white"/>
  <text x="50%" y="50%" dominant-baseline="middle" text-anchor="middle" fill="white" font-size="48" font-weight="bold">1</text>
</svg>